<?xml version="1.0" encoding="utf-8"?>
<!DOCTYPE svg PUBLIC "-//W3C//DTD SVG 20010904//EN" "http://www.w3.org/TR/2001/REC-SVG-20010904/DTD/svg10.dtd">
<svg version="1.0" xmlns="http://www.w3.org/2000/svg" width="512px" height="512px" viewBox="0 0 512 512" preserveAspectRatio="xMidYMid meet">
 <g fill="#34ad00">
  <path d="M0 256 l0 -256 256 0 256 0 0 256 0 256 -65.5 0 -65.5 0 0 -47.5 0 -47.5 22.5 0 c18.4 0 22.5 0.2 22.5 1.4 0 0.7 -1.8 16.3 -4 34.6 -3 24.1 -3.8 33.6 -3 34.4 0.6 0.6 4.6 1.2 8.8 1.4 12.7 0.6 11.7 2.8 16.6 -37.4 l4.1 -33.9 14.1 -0.3 c16.9 -0.3 17.9 -0.9 17.9 -9.9 0 -8.4 -1.6 -9.3 -16.6 -9.3 l-11.9 0 0 -2.9 c0 -2.9 6.5 -58.5 7.5 -64.8 l0.6 -3.3 13.8 0 c12.6 0 14 -0.2 15.6 -2 2.8 -3.1 2.7 -11.3 -0.3 -14.2 -2 -2.1 -3.3 -2.3 -14.2 -2.6 l-12 -0.4 0 -2.6 c0 -1.5 1.6 -16.1 3.6 -32.5 2.1 -16.3 3.5 -30 3.1 -30.3 -1.5 -1.5 -9 -2.3 -16.4 -1.7 l-8.3 0.6 0 -55.2 0 -55.1 -61 0 -61 0 0 64 0 64 -67 0 -67 0 0 -64 0 -64 -61 0 -61 0 0 93 0 93 32 0 32 0 0 97.5 0 97.5 -65.5 0 -65.5 0 0 -256z"/>
  <path d="M189 478.5 l0 -33.5 67 0 67 0 0 33.5 0 33.5 -67 0 -67 0 0 -33.5z"/>
  <path d="M381 362.5 l0 -35.5 28 0 28 0 0 3.3 c0 1.7 -1.8 17.4 -4 34.7 -2.2 17.3 -4 31.8 -4 32.3 0 0.4 -10.8 0.7 -24 0.7 l-24 0 0 -35.5z"/>
 </g>
 <g fill="#000000">
  <path d="M128 385.5 c0 -57.6 -0.2 -65.5 -1.5 -65.5 -0.8 0 -1.5 -0.7 -1.5 -1.5 0 -1.3 4.2 -1.5 32 -1.5 l32 0 0 -29 0 -29 -62.5 0 -62.5 0 0 -65.5 0 -65.5 64 0 64 0 0 64 0 64 64 0 64 0 0 -64 0 -64 64 0 64 0 0 55 c0 48.2 0.2 55 1.5 55 0.8 0 1.5 0.9 1.5 2 0 1.1 -0.4 2 -1 2 -1.1 0 -2.7 5.5 -3.5 12.3 l-0.6 4.7 -30.1 0 -30 0 0.7 -8.4 0.7 -8.5 -4.3 -1.1 c-5.1 -1.4 -14.3 -0.5 -16.3 1.6 -0.8 0.8 -1.8 3.6 -2.1 6.2 -0.3 2.6 -0.9 5.9 -1.1 7.5 l-0.6 2.7 -19.9 0 -20 0 0.3 30.8 c0.3 27.1 0.5 31.1 2.1 34 l1.8 3.2 13.4 0 13.5 0 0 2.8 c0 1.5 -1.8 16.9 -4 34.2 -2.2 17.3 -4 32.1 -4 32.8 0 0.9 -3.6 1.2 -14.5 1.2 l-14.5 0 0 -5.5 0 -5.5 -61 0 -61 0 0 30.5 c0 26.4 -0.2 30.5 -1.5 30.5 -0.8 0 -1.5 0.7 -1.5 1.5 0 1.3 -4.2 1.5 -32 1.5 l-32 0 0 -65.5z"/>
  <path d="M320 449.5 c0 -0.8 -0.7 -1.5 -1.5 -1.5 -1.3 0 -1.5 -2.4 -1.5 -15.5 l0 -15.5 12.5 0 12.5 0 0 4.3 c0 2.3 -0.7 9.7 -1.5 16.2 -0.8 6.6 -1.5 12.3 -1.5 12.8 0 0.4 -4.3 0.7 -9.5 0.7 -7.8 0 -9.5 -0.3 -9.5 -1.5z"/>
  <path d="M362 448.3 c0 -1.6 0.8 -9.2 1.7 -17 l1.7 -14.3 10.8 0 c8.9 0 10.8 0.3 10.8 1.5 0 0.8 -0.7 1.5 -1.5 1.5 -1.3 0 -1.5 2.4 -1.5 15.5 l0 15.5 -11 0 -11 0 0 -2.7z"/>
  <path d="M369 393.8 c0.1 -2.4 1.8 -18.2 3.8 -35.3 l3.7 -31 5.3 -0.3 c4.2 -0.2 5.2 0 5.2 1.2 0 0.9 -0.7 1.6 -1.5 1.6 -1.3 0 -1.5 4.3 -1.5 32.5 0 28.2 0.2 32.5 1.5 32.5 0.8 0 1.5 0.7 1.5 1.5 0 1.2 -1.7 1.5 -9 1.5 l-9 0 0 -4.2z"/>
 </g>
 <g fill="#2a8700">
  <path d="M128 480 l0 -32 32 0 32 0 0 -32 0 -32 64 0 64 0 0 5.5 c0 4.2 0.3 5.5 1.5 5.5 0.8 0 1.5 0.7 1.5 1.5 0 0.9 -0.9 1.5 -2.5 1.5 -8.9 0 -9.6 18 -0.7 18.8 3.2 0.3 4.8 3.2 1.7 3.2 -1.3 0 -1.5 2.2 -1.5 14 l0 14 8 0 c6.4 0 8 -0.3 8 -1.5 0 -0.8 0.7 -1.5 1.5 -1.5 2 0 1.9 1.1 -0.6 22.8 -1.7 14.2 -1.9 18.6 -1 19.5 0.6 0.6 4.7 1.3 8.9 1.5 11.6 0.6 11.7 0.5 14.2 -19.8 2.9 -23.3 3 -24 4.6 -24 0.8 0 1.4 0.7 1.4 1.5 0 1.2 1.7 1.5 9.5 1.5 l9.5 0 0 32 0 32 -32 0 -32 0 0 -32 0 -32 -64 0 -64 0 0 32 0 32 -32 0 -32 0 0 -32z"/>
  <path d="M320.6 320.8 c-0.3 -1.3 -0.6 -16.4 -0.6 -33.5 l0 -31.3 20 0 c17.1 0 20 -0.2 20 -1.5 0 -0.8 0.7 -1.5 1.5 -1.5 2.1 0 1.9 3.9 -1.5 30 -1.6 12.4 -3 23 -3 23.7 0 0.8 -4.2 1.2 -14.5 1.5 -17 0.4 -17.6 0.7 -18.3 9.2 -0.5 5.8 -2.4 7.6 -3.6 3.4z"/>
  <path d="M64 288 l0 -32 64 0 64 0 0 32 0 32 -64 0 -64 0 0 -32z"/>
  <path d="M380 304.2 c0 -2.1 1.4 -14.1 3 -26.7 1.7 -12.6 3 -23.3 3 -23.7 0 -0.4 0.7 -0.8 1.5 -0.8 0.8 0 1.5 0.7 1.5 1.5 0 1.3 3.7 1.5 27 1.5 23.3 0 27 -0.2 27 -1.5 0 -0.8 0.7 -1.5 1.5 -1.5 2.1 0 2 2.8 -1.5 30 -1.6 12.9 -3 23.8 -3 24.3 0 0.4 -13.5 0.7 -30 0.7 l-30 0 0 -3.8z"/>
 </g>
 <g fill="#fff9fc">
  <path d="M334.4 491 c-1.2 -0.5 -2.5 -1.3 -2.8 -1.8 -0.3 -0.5 1.2 -15.7 3.4 -33.8 2.2 -18.1 4 -33.5 4 -34.1 0 -1 -3.2 -1.3 -12.5 -1.3 -12 0 -12.5 -0.1 -14 -2.4 -3.4 -5.1 -3.1 -17 0.6 -20.7 1.7 -1.7 3.4 -1.9 15.9 -1.9 9.7 0 14 -0.3 14 -1.1 0 -1.5 6.8 -56.6 7.5 -60.6 l0.6 -3.3 -13.5 0 -13.5 0 -1.7 -3.1 c-1.2 -2.4 -1.5 -5.1 -1.2 -10.5 0.5 -10.7 0.7 -10.8 18.3 -11.2 8.1 -0.2 14.5 -0.8 14.5 -1.3 0 -2.6 8 -61.6 8.5 -63.1 0.4 -0.9 1.4 -1.9 2.3 -2.3 3 -1.1 13.8 -1.8 18.4 -1.1 8.7 1.3 8.5 -0.9 3.9 34.7 -2.3 17.4 -4.1 31.9 -4.1 32.3 0 0.3 12.2 0.6 27 0.6 14.9 0 27 -0.3 27 -0.6 0 -3.1 7.3 -58.8 8.1 -61.6 1.2 -4.6 3.1 -5.3 14.4 -5.3 9 0 13 0.8 13.8 2.9 0.3 0.7 -1.2 15.5 -3.4 32.7 -2.1 17.3 -3.9 31.5 -3.9 31.6 0 0.1 5.4 0.3 12 0.5 10.9 0.3 12.2 0.5 14.2 2.6 2 2 2.3 3.3 2.3 10.1 0 11.9 -0.3 12.1 -17.6 12.1 l-13.8 0 -0.6 3.3 c-0.3 1.7 -1.9 14.7 -3.5 28.7 -1.6 14 -3.3 27.2 -3.6 29.3 l-0.6 3.7 12 0 c16 0 16.7 0.5 16.7 12.3 0 12.5 -0.1 12.6 -17.9 12.9 l-14.1 0.3 -4.1 33.9 c-4.9 40.4 -3.6 37.6 -17.9 37.6 -12.7 0 -14.5 -0.8 -14.5 -6.2 0.1 -2.4 1.8 -18.1 3.8 -35 l3.8 -30.8 -27.1 0 -27 0 -4.3 34.3 c-3.8 30.7 -4.4 34.4 -6.3 36 -1.7 1.4 -4 1.7 -11.8 1.6 -5.3 0 -10.6 -0.4 -11.7 -0.9z m91.6 -96.6 c0 -1 7 -56.6 7.6 -60.7 l0.6 -3.7 -27.3 0.2 -27.4 0.3 -3.2 27 c-1.7 14.9 -3.4 29.4 -3.8 32.3 l-0.6 5.2 27 0 c14.9 0 27.1 -0.3 27.1 -0.6z"/>
 </g>
</svg>